<svg width="64" height="64" viewBox="0 0 64 64" xmlns="http://www.w3.org/2000/svg" role="img" aria-label="AutoPilot CRM">
  <defs>
    <radialGradient id="bg" cx="50%" cy="42%" r="68%">
      <stop offset="0%" stop-color="#0b55ff"/>
      <stop offset="56%" stop-color="#032b98"/>
      <stop offset="100%" stop-color="#020817"/>
    </radialGradient>
    <linearGradient id="neon" x1="13" y1="14" x2="52" y2="54" gradientUnits="userSpaceOnUse">
      <stop stop-color="#67f5ff"/>
      <stop offset="52%" stop-color="#1696ff"/>
      <stop offset="100%" stop-color="#0047ff"/>
    </linearGradient>
    <filter id="glow" x="-40%" y="-40%" width="180%" height="180%">
      <feGaussianBlur stdDeviation="1.8" result="blur"/>
      <feMerge>
        <feMergeNode in="blur"/>
        <feMergeNode in="SourceGraphic"/>
      </feMerge>
    </filter>
  </defs>

  <rect width="64" height="64" rx="16" fill="#020817"/>
  <circle cx="32" cy="32" r="27" fill="url(#bg)" stroke="#58e7ff" stroke-width="2.2" filter="url(#glow)"/>
  <path d="M12.5 31.5C16.5 22.4 23.6 17.8 32 17.8c8.4 0 15.5 4.6 19.5 13.7" fill="none" stroke="url(#neon)" stroke-width="5.2" stroke-linecap="round"/>
  <path d="M12.5 32.2c8.1.4 15.1 3.2 19.5 8.2 4.4-5 11.4-7.8 19.5-8.2" fill="none" stroke="#7cf7ff" stroke-width="2.3" stroke-linecap="round" filter="url(#glow)"/>
  <path d="M16.3 40.1c4.3 6.7 9.8 10.2 15.7 10.2s11.4-3.5 15.7-10.2" fill="none" stroke="url(#neon)" stroke-width="5.5" stroke-linecap="round"/>
  <circle cx="32" cy="40" r="6.2" fill="#05246d" stroke="#73f2ff" stroke-width="2.2" filter="url(#glow)"/>

  <path d="M32 15v20M26.2 34.2V24.5M37.8 34.2V24.5M21.5 32.8v-6.2M42.5 32.8v-6.2" fill="none" stroke="#7cf7ff" stroke-width="2.2" stroke-linecap="round" stroke-linejoin="round" filter="url(#glow)"/>
  <path d="M26.2 24.5l-4.7-3.8M37.8 24.5l4.7-3.8M21.5 26.6l-4-3.1M42.5 26.6l4-3.1" fill="none" stroke="#7cf7ff" stroke-width="2.2" stroke-linecap="round" stroke-linejoin="round" filter="url(#glow)"/>
  <circle cx="32" cy="15" r="2.2" fill="#020817" stroke="#7cf7ff" stroke-width="2"/>
  <circle cx="26.2" cy="24.5" r="2" fill="#020817" stroke="#7cf7ff" stroke-width="2"/>
  <circle cx="37.8" cy="24.5" r="2" fill="#020817" stroke="#7cf7ff" stroke-width="2"/>
  <circle cx="21.5" cy="20.7" r="2" fill="#020817" stroke="#7cf7ff" stroke-width="2"/>
  <circle cx="42.5" cy="20.7" r="2" fill="#020817" stroke="#7cf7ff" stroke-width="2"/>
  <circle cx="17.5" cy="23.5" r="2" fill="#020817" stroke="#7cf7ff" stroke-width="2"/>
  <circle cx="46.5" cy="23.5" r="2" fill="#020817" stroke="#7cf7ff" stroke-width="2"/>
</svg>
