<?xml version="1.0"?>
<svg xmlns="http://www.w3.org/2000/svg" width="48" height="48" viewBox="0 0 48 48">
    <g fill="none" fill-rule="evenodd">
        <path fill="#6E0AD6" d="M9.094 20.752c-2.737 0-4.625-2.266-4.625-5.619 0-3.384 1.888-5.65 4.625-5.65 2.738 0 4.626 2.266 4.626 5.618 0 3.385-1.888 5.651-4.626 5.651m0 4.247c5.067 0 9.095-4.215 9.095-9.898 0-5.619-3.808-9.865-9.095-9.865C4.028 5.236 0 9.45 0 15.133 0 20.848 3.808 25 9.094 25" transform="translate(0 10.8)"/>
        <path fill="#8CE563" d="M21.933 17.464h8.686c.597 0 .944-.351.944-.958v-2.778c0-.606-.347-.957-.944-.957h-5.822V.958c0-.607-.346-.958-.944-.958h-2.864c-.598 0-.944.351-.944.958v14.59c0 1.245.661 1.916 1.888 1.916" transform="translate(0 10.8)"/>
        <path fill="#F28000" d="M33.734 24.711l5.224-6.098 5.066 6.098c.44.543 1.007.543 1.51.096l2.046-1.82c.503-.447.566-1.022.094-1.532l-5.632-6.386 5.129-5.842c.44-.511.409-1.054-.094-1.533l-1.92-1.756c-.504-.479-1.07-.447-1.51.096l-4.69 5.523-4.782-5.523c-.441-.51-1.007-.575-1.51-.096L30.68 7.726c-.503.479-.534.99-.062 1.533l5.223 5.842-5.695 6.418c-.473.542-.41 1.085.094 1.532l1.982 1.756c.504.447 1.07.415 1.511-.096" transform="translate(0 10.8)"/>
    </g>
</svg>
